<?xml version="1.0" encoding="UTF-8" standalone="no"?>
<!-- Created with Inkscape (http://www.inkscape.org/) -->

<svg
   xmlns:dc="http://purl.org/dc/elements/1.1/"
   xmlns:cc="http://creativecommons.org/ns#"
   xmlns:rdf="http://www.w3.org/1999/02/22-rdf-syntax-ns#"
   xmlns:svg="http://www.w3.org/2000/svg"
   xmlns="http://www.w3.org/2000/svg"
   xmlns:sodipodi="http://sodipodi.sourceforge.net/DTD/sodipodi-0.dtd"
   xmlns:inkscape="http://www.inkscape.org/namespaces/inkscape"
   version="1.1"
   id="svg3732"
   xml:space="preserve"
   width="3333.3333"
   height="3333.3333"
   viewBox="0 0 3333.3333 3333.3333"
   sodipodi:docname="logo.svg"
   inkscape:version="0.92.5 (2060ec1f9f, 2020-04-08)"><metadata
     id="metadata3738"><rdf:RDF><cc:Work
         rdf:about=""><dc:format>image/svg+xml</dc:format><dc:type
           rdf:resource="http://purl.org/dc/dcmitype/StillImage" /><dc:title></dc:title></cc:Work></rdf:RDF></metadata><defs
     id="defs3736" /><sodipodi:namedview
     pagecolor="#ffffff"
     bordercolor="#666666"
     borderopacity="1"
     objecttolerance="10"
     gridtolerance="10"
     guidetolerance="10"
     inkscape:pageopacity="0"
     inkscape:pageshadow="2"
     inkscape:window-width="1848"
     inkscape:window-height="1016"
     id="namedview3734"
     showgrid="false"
     inkscape:zoom="0.25140001"
     inkscape:cx="1666.6666"
     inkscape:cy="2462.2116"
     inkscape:window-x="72"
     inkscape:window-y="27"
     inkscape:window-maximized="1"
     inkscape:current-layer="g3740" /><g
     id="g3740"
     inkscape:groupmode="layer"
     inkscape:label="ink_ext_XXXXXX"
     transform="matrix(1.3333333,0,0,-1.3333333,0,3333.3333)"><g
       transform="matrix(0.122694,0,0,0.122694,-420.64439,683.17422)"
       id="g3784"><path
         inkscape:connector-curvature="0"
         id="path3786"
         style="fill:#e3eaf3;fill-opacity:1;fill-rule:evenodd;stroke:none"
         d="m 14200,4715.21 c 1159.8,0 2100,-64.71 2100,-144.51 0,-79.79 -940.2,-144.42 -2100,-144.42 -1159.7,0 -2099.9,64.63 -2099.9,144.42 0,79.8 940.2,144.51 2099.9,144.51" /></g><g
       transform="matrix(0.128523,0,0,0.128523,-420.64439,683.17422)"
       id="g3788"><path
         inkscape:connector-curvature="0"
         id="path3790"
         style="fill:#374456;fill-opacity:1;fill-rule:evenodd;stroke:none"
         d="m 16224.9,7129.6 c -514.1,12.29 -546.7,525.59 -1055.2,550.33 0,0 9.9,265.32 122.8,413.86 -502,-193.51 -477.4,-851.06 -863.6,-1245.23 -721.4,-736.28 -1909.9,-372.38 -2193.3,498.82 0,0 -106.9,-518.73 281.1,-978.03 0,0 -736.5,-926.6 -459.3,-2011.54 h 459.7 c 170.6,1378.58 1971.6,1400.99 2106.2,0 h 513.9 c 18.7,122.55 89.6,339.71 39.8,933.99 -47.3,565.5 -126.4,1242.5 653.5,1321.87 398.1,40.53 469.5,250.53 394.4,515.93" /></g></g></svg>